<svg id="Layer_1" data-name="Layer 1" xmlns="http://www.w3.org/2000/svg" width="709" height="150" viewBox="0 0 709 150"><defs><style>.cls-1,.cls-14,.cls-2{fill:none;}.cls-1{stroke:#000;stroke-width:5px;}.cls-1,.cls-2{stroke-miterlimit:10;}.cls-2{stroke:#333;stroke-linecap:round;stroke-width:4px;}.cls-3{fill:#005d8a;}.cls-4{fill:#f4001b;}.cls-5{fill:#50ff15;}.cls-6{fill:#e1ff3f;}.cls-7{fill:#6400aa;}.cls-8{fill:#838bc5;}.cls-9{fill:#333;}.cls-10{fill:#b3b3b3;}.cls-11{fill:#ff0a94;}.cls-12{fill:#156aff;}.cls-13{fill:#8cc63f;}.cls-15{fill:#9f2c00;}.cls-16{fill:#ff74f9;}.cls-17{fill:#9e005d;}.cls-18{fill:#1a1a1a;}.cls-19{fill:#ff4f0a;}.cls-20{fill:#666;}</style></defs><title>egern_sprite1</title><rect x="11.42" y="126.95" width="6.53" height="11.53" rx="1.35" transform="translate(-50.05 249.49) rotate(-144.69)"/><rect x="9.42" y="130.93" width="4.1" height="2.43" rx="1" transform="translate(73.23 14.76) rotate(32.71)"/><rect x="11.15" y="128.3" width="4.85" height="2.43" rx="1" transform="translate(72.15 13.2) rotate(32.71)"/><rect x="55.76" y="70.59" width="5.82" height="30.54" transform="translate(45.18 -17.25) rotate(26.89)"/><rect x="63.7" y="84.31" width="5.85" height="30.54" transform="translate(147.78 11.44) rotate(76.42)"/><rect x="69.72" y="88.98" width="5.87" height="37.45" transform="translate(69.73 -22.18) rotate(32.71)"/><rect x="81.83" y="103.25" width="5.87" height="39.46" transform="translate(184.4 11.7) rotate(76.42)"/><rect x="49.01" y="95.98" width="5.82" height="11.4" rx="1.35" transform="translate(162.59 129.71) rotate(131.26)"/><rect x="61.25" y="118.13" width="7.24" height="16.36" rx="1.35" transform="translate(191.97 189.64) rotate(143.67)"/><rect x="31.1" y="120.01" width="6.53" height="12.48" rx="1.35" transform="translate(162.82 101.35) rotate(94.25)"/><path class="cls-1" d="M52.05,102.59c-12,4.13-19.34,14.65-16.3,23.53"/><path class="cls-1" d="M15.13,132.46c11.32,12.37,34.88,9.19,52.69-7.1"/><path class="cls-2" d="M24,52c.48.52,2.2,4.28,3,5a37.39,37.39,0,0,0,4,3c3.46,2.22,7,4.66,8,5,5.81,1.9,6.13,2.33,13,6a61.83,61.83,0,0,0,18,6c4,.54,9,12,10,22"/><path class="cls-2" d="M79,94c1,7,6,13,11,14s4,8,8,11c4.86,3.65,7.39,2.93,10,3"/><path class="cls-3" d="M117.68,42c0,15.38-21.07,29.62-38.81,32.75-15.55,2.74-26-5.45-32.75-8.49-10-4.49-22.12-6.41-24.26-14.56-3.73-14.18,16.11-40,38.81-40C76.41,11.64,117.68,26.22,117.68,42Z"/><path class="cls-3" d="M134.66,73.51c0,25.12-11.8,49.73-24.86,49.73S86.14,102.87,86.14,77.75,85.21,26.2,98.27,26.2,134.66,48.38,134.66,73.51Z"/><path class="cls-3" d="M96.9,84.67c2.48,12.14,1,22.69-3.24,23.56s-11.1-2-13.58-14.1c-1.47-7.21,0-8.49-7.28-15.77C68.51,74.07,59,73.64,60.67,72.29c.24-.19,12-6,12.13-6.06C77.07,65.36,94.43,72.52,96.9,84.67Z"/><polygon class="cls-4" points="62.47 52.92 51.23 48.22 40.99 54.81 41.99 42.67 32.55 34.97 44.41 32.17 48.82 20.81 55.14 31.22 67.3 31.91 59.36 41.14 62.47 52.92"/><polygon class="cls-5" points="108.42 97.51 102.04 94.63 96.27 98.58 96.79 91.23 91.42 86.53 98.12 84.87 100.58 78.01 104.19 84.34 111.08 84.8 106.62 90.37 108.42 97.51"/><polygon class="cls-6" points="118.95 79.89 115.16 78.11 111.73 80.52 112.03 76.03 108.83 73.15 112.81 72.15 114.26 67.96 116.42 71.83 120.52 72.12 117.87 75.52 118.95 79.89"/><polygon class="cls-7" points="99.24 71.21 94.6 69.13 90.39 71.99 90.78 66.69 86.87 63.3 91.75 62.1 93.54 57.15 96.17 61.71 101.19 62.04 97.93 66.06 99.24 71.21"/><circle class="cls-8" cx="91.5" cy="40.5" r="5.5"/><rect class="cls-9" x="54.5" y="19.5" width="12.5" height="7" rx="3.5"/><rect class="cls-9" x="83.5" y="24.5" width="12.5" height="7" rx="3.5" transform="translate(16.33 -30.72) rotate(21.33)"/><rect class="cls-9" x="108.5" y="42.5" width="12.5" height="7" rx="3.5" transform="translate(75.26 -71.15) rotate(49.53)"/><rect class="cls-9" x="119.5" y="70.5" width="12.5" height="7" rx="3.5" transform="translate(194.12 -54.9) rotate(87.47)"/><rect x="195.76" y="69.59" width="5.82" height="30.54" transform="translate(59.87 -80.68) rotate(26.89)"/><rect x="203.7" y="83.31" width="5.85" height="30.54" transform="translate(253.94 -125.41) rotate(76.42)"/><rect x="209.72" y="87.98" width="5.87" height="37.45" transform="translate(91.39 -98) rotate(32.71)"/><rect x="221.83" y="102.25" width="5.87" height="39.46" transform="translate(290.56 -125.15) rotate(76.42)"/><rect x="189.01" y="94.98" width="5.82" height="11.4" rx="1.35" transform="translate(394.16 22.8) rotate(131.26)"/><rect x="201.25" y="117.13" width="7.24" height="16.36" rx="1.35" transform="translate(444.17 104.9) rotate(143.67)"/><rect x="171.1" y="119.01" width="6.53" height="12.48" rx="1.35" transform="translate(312.21 -39.34) rotate(94.25)"/><path class="cls-1" d="M192.05,101.59c-12.05,4.13-19.34,14.65-16.3,23.53"/><path class="cls-1" d="M155.13,131.46c11.32,12.37,34.88,9.19,52.69-7.1"/><path class="cls-2" d="M164,51c.48.52,2.2,4.28,3,5a37.39,37.39,0,0,0,4,3c3.46,2.22,7,4.66,8,5,5.81,1.9,6.13,2.33,13,6a61.83,61.83,0,0,0,18,6c4,.54,9,12,10,22"/><path class="cls-2" d="M219,93c1,7,6,13,11,14s4,8,8,11c4.86,3.65,7.39,2.93,10,3"/><path class="cls-10" d="M257.68,41c0,15.38-21.07,29.62-38.81,32.75-15.55,2.74-26-5.45-32.75-8.49-10-4.49-22.12-6.41-24.26-14.56-3.73-14.18,16.11-40,38.81-40C216.41,10.64,257.68,25.22,257.68,41Z"/><path class="cls-10" d="M274.66,72.51c0,25.12-11.8,49.73-24.86,49.73s-23.66-20.37-23.66-45.49-.93-51.55,12.13-51.55S274.66,47.38,274.66,72.51Z"/><path class="cls-10" d="M236.9,83.67c2.48,12.14,1,22.69-3.24,23.56s-11.1-2-13.58-14.1c-1.47-7.21,0-8.49-7.28-15.77-4.29-4.29-13.79-4.72-12.13-6.07.24-.19,12-6,12.13-6.06C217.07,64.36,234.43,71.52,236.9,83.67Z"/><rect class="cls-9" x="194.5" y="18.5" width="12.5" height="7" rx="3.5"/><rect class="cls-9" x="223.5" y="23.5" width="12.5" height="7" rx="3.5" transform="translate(25.55 -81.71) rotate(21.33)"/><rect class="cls-9" x="248.5" y="41.5" width="12.5" height="7" rx="3.5" transform="translate(123.63 -178) rotate(49.53)"/><polygon class="cls-11" points="188.95 36.89 185.16 35.11 181.73 37.52 182.03 33.03 178.83 30.15 182.81 29.15 184.26 24.96 186.42 28.83 190.52 29.12 187.87 32.52 188.95 36.89"/><polygon class="cls-6" points="230.47 61.92 219.23 57.22 208.99 63.81 209.99 51.67 200.55 43.97 212.41 41.17 216.82 29.81 223.14 40.22 235.3 40.91 227.36 50.14 230.47 61.92"/><polygon class="cls-7" points="238.24 81.21 233.6 79.13 229.39 81.99 229.78 76.69 225.87 73.3 230.75 72.1 232.54 67.15 235.17 71.71 240.19 72.04 236.93 76.06 238.24 81.21"/><polygon class="cls-12" points="258.42 70.51 252.04 67.63 246.27 71.58 246.79 64.23 241.42 59.53 248.12 57.87 250.57 51.01 254.19 57.34 261.08 57.8 256.62 63.37 258.42 70.51"/><circle class="cls-13" cx="251.5" cy="95.5" r="5.5"/><rect x="150.42" y="124.95" width="6.53" height="11.53" rx="1.35" transform="translate(203.54 326.2) rotate(-144.69)"/><rect x="148.42" y="128.93" width="4.1" height="2.43" rx="1" transform="matrix(0.84, 0.54, -0.54, 0.84, 94.2, -60.67)"/><rect x="150.15" y="126.3" width="4.85" height="2.43" rx="1" transform="matrix(0.84, 0.54, -0.54, 0.84, 93.11, -62.23)"/><rect class="cls-14" x="271" y="-40" width="100" height="100"/><rect class="cls-14" x="371" y="-40" width="100" height="100"/><rect class="cls-14" x="271" y="-40" width="100" height="100"/><rect class="cls-14" x="271" y="-40" width="100" height="100"/><rect class="cls-14" x="371" y="-40" width="100" height="100"/><rect x="335.76" y="69.59" width="5.82" height="30.54" transform="translate(75.01 -144.01) rotate(26.89)"/><rect x="343.7" y="83.31" width="5.85" height="30.54" transform="translate(361.07 -261.5) rotate(76.42)"/><rect x="349.72" y="87.98" width="5.87" height="37.45" transform="translate(113.6 -173.66) rotate(32.71)"/><rect x="361.83" y="102.25" width="5.87" height="39.46" transform="translate(397.69 -261.23) rotate(76.42)"/><rect x="329.01" y="94.98" width="5.82" height="11.4" rx="1.35" transform="translate(626.48 -82.45) rotate(131.26)"/><rect x="341.25" y="117.13" width="7.24" height="16.36" rx="1.35" transform="translate(696.96 21.97) rotate(143.67)"/><rect x="311.1" y="119.01" width="6.53" height="12.48" rx="1.35" transform="matrix(-0.07, 1, -1, -0.07, 462.59, -178.95)"/><path class="cls-1" d="M332.05,101.59c-12.05,4.13-19.34,14.65-16.3,23.53"/><path class="cls-1" d="M295.13,131.46c11.32,12.37,34.88,9.19,52.69-7.1"/><path class="cls-2" d="M304,51c.48.52,2.2,4.28,3,5a37.39,37.39,0,0,0,4,3c3.46,2.22,7,4.66,8,5,5.81,1.9,6.13,2.33,13,6a61.83,61.83,0,0,0,18,6c4,.54,9,12,10,22"/><path class="cls-2" d="M359,93c1,7,6,13,11,14s4,8,8,11c4.86,3.65,7.39,2.93,10,3"/><path class="cls-15" d="M397.68,41c0,15.38-21.07,29.62-38.81,32.75-15.55,2.74-26-5.45-32.75-8.49-10-4.49-22.12-6.41-24.26-14.56-3.73-14.18,16.11-40,38.81-40C356.41,10.64,397.68,25.22,397.68,41Z"/><path class="cls-15" d="M414.66,72.51c0,25.12-11.8,49.73-24.86,49.73s-23.66-20.37-23.66-45.49-.93-51.55,12.13-51.55S414.66,47.38,414.66,72.51Z"/><path class="cls-15" d="M376.9,83.67c2.48,12.14,1,22.69-3.24,23.56s-11.1-2-13.58-14.1c-1.47-7.21,0-8.49-7.28-15.77-4.29-4.29-13.79-4.72-12.13-6.07.24-.19,12-6,12.13-6.06C357.07,64.36,374.43,71.52,376.9,83.67Z"/><rect class="cls-9" x="334.5" y="18.5" width="12.5" height="7" rx="3.5"/><rect class="cls-9" x="363.5" y="23.5" width="12.5" height="7" rx="3.5" transform="translate(35.14 -132.62) rotate(21.33)"/><rect class="cls-9" x="388.5" y="41.5" width="12.5" height="7" rx="3.5" transform="translate(172.76 -284.5) rotate(49.53)"/><polygon class="cls-11" points="328.95 36.89 325.16 35.11 321.73 37.52 322.03 33.03 318.83 30.15 322.81 29.15 324.26 24.96 326.42 28.83 330.52 29.12 327.87 32.52 328.95 36.89"/><polygon class="cls-6" points="370.47 61.92 359.23 57.22 348.99 63.81 349.99 51.67 340.55 43.97 352.41 41.17 356.82 29.81 363.14 40.22 375.3 40.91 367.36 50.14 370.47 61.92"/><polygon class="cls-7" points="387.24 57.21 382.6 55.13 378.39 57.99 378.78 52.69 374.87 49.3 379.75 48.1 381.54 43.15 384.17 47.71 389.19 48.04 385.93 52.06 387.24 57.21"/><polygon class="cls-16" points="385.42 86.51 379.04 83.63 373.27 87.58 373.79 80.23 368.42 75.53 375.12 73.87 377.57 67.01 381.19 73.34 388.08 73.8 383.62 79.37 385.42 86.51"/><circle class="cls-17" cx="391.5" cy="95.5" r="5.5"/><rect x="290.42" y="124.95" width="6.53" height="11.53" rx="1.35" transform="translate(457.79 407.12) rotate(-144.69)"/><rect x="288.42" y="128.93" width="4.1" height="2.43" rx="1" transform="translate(116.41 -136.33) rotate(32.71)"/><rect x="290.15" y="126.3" width="4.85" height="2.43" rx="1" transform="translate(115.32 -137.89) rotate(32.71)"/><rect x="428.42" y="128.93" width="4.1" height="2.43" rx="1" transform="translate(138.61 -211.99) rotate(32.71)"/><rect x="475.76" y="69.59" width="5.82" height="30.54" transform="translate(90.15 -207.33) rotate(26.89)"/><rect x="483.7" y="83.31" width="5.85" height="30.54" transform="translate(468.2 -397.59) rotate(76.42)"/><rect x="489.72" y="87.98" width="5.87" height="37.45" transform="translate(135.8 -249.32) rotate(32.71)"/><rect x="501.83" y="102.25" width="5.87" height="39.46" transform="translate(504.82 -397.32) rotate(76.42)"/><rect x="469.01" y="94.98" width="5.82" height="11.4" rx="1.35" transform="translate(858.8 -187.69) rotate(131.26)"/><rect x="481.25" y="117.13" width="7.24" height="16.36" rx="1.35" transform="matrix(-0.81, 0.59, -0.59, -0.81, 949.75, -60.97)"/><rect x="451.1" y="119.01" width="6.53" height="12.48" rx="1.35" transform="matrix(-0.07, 1, -1, -0.07, 612.98, -318.57)"/><path class="cls-1" d="M472.05,101.59c-12.05,4.13-19.34,14.65-16.3,23.53"/><path class="cls-1" d="M435.13,131.46c11.32,12.37,34.88,9.19,52.69-7.1"/><path class="cls-2" d="M444,51c.48.52,2.2,4.28,3,5a37.39,37.39,0,0,0,4,3c3.46,2.22,7,4.66,8,5,5.81,1.9,6.13,2.33,13,6a61.83,61.83,0,0,0,18,6c4,.54,9,12,10,22"/><path class="cls-2" d="M499,93c1,7,6,13,11,14s4,8,8,11c4.86,3.65,7.39,2.93,10,3"/><path class="cls-18" d="M537.68,41c0,15.38-21.07,29.62-38.81,32.75-15.55,2.74-26-5.45-32.75-8.49-10-4.49-22.12-6.41-24.26-14.56-3.73-14.18,16.11-40,38.81-40C496.41,10.64,537.68,25.22,537.68,41Z"/><path class="cls-18" d="M554.66,72.51c0,25.12-11.8,49.73-24.86,49.73s-23.66-20.37-23.66-45.49-.93-51.55,12.13-51.55S554.66,47.38,554.66,72.51Z"/><path class="cls-18" d="M516.9,83.67c2.48,12.14,1,22.69-3.24,23.56s-11.1-2-13.58-14.1c-1.47-7.21,0-8.49-7.28-15.77-4.29-4.29-13.79-4.72-12.13-6.07.24-.19,12-6,12.13-6.06C497.07,64.36,514.43,71.52,516.9,83.67Z"/><rect class="cls-9" x="474.5" y="18.5" width="12.5" height="7" rx="3.5"/><rect class="cls-9" x="503.5" y="23.5" width="12.5" height="7" rx="3.5" transform="translate(44.73 -183.54) rotate(21.33)"/><rect class="cls-9" x="528.5" y="41.5" width="12.5" height="7" rx="3.5" transform="translate(221.89 -391.01) rotate(49.53)"/><polygon class="cls-11" points="468.95 36.89 465.16 35.11 461.73 37.52 462.03 33.03 458.83 30.15 462.81 29.15 464.26 24.96 466.42 28.83 470.52 29.12 467.87 32.52 468.95 36.89"/><polygon class="cls-19" points="510.47 61.92 499.23 57.22 488.99 63.81 489.99 51.67 480.55 43.97 492.41 41.17 496.82 29.81 503.14 40.22 515.3 40.91 507.36 50.14 510.47 61.92"/><polygon class="cls-7" points="518.24 81.21 513.6 79.13 509.39 81.99 509.78 76.69 505.87 73.3 510.75 72.1 512.54 67.15 515.17 71.71 520.19 72.04 516.93 76.06 518.24 81.21"/><polygon class="cls-12" points="538.41 70.51 532.04 67.63 526.27 71.58 526.79 64.23 521.42 59.53 528.12 57.87 530.58 51.01 534.19 57.34 541.08 57.8 536.62 63.37 538.41 70.51"/><circle class="cls-13" cx="531.5" cy="95.5" r="5.5"/><rect x="430.42" y="124.95" width="6.53" height="11.53" rx="1.35" transform="translate(712.03 488.04) rotate(-144.69)"/><rect x="430.15" y="126.3" width="4.85" height="2.43" rx="1" transform="translate(137.52 -213.55) rotate(32.71)"/><rect x="614.76" y="69.59" width="5.82" height="30.54" transform="translate(105.18 -270.21) rotate(26.89)"/><rect x="622.7" y="83.31" width="5.85" height="30.54" transform="translate(574.56 -532.7) rotate(76.42)"/><rect x="628.72" y="87.98" width="5.87" height="37.45" transform="translate(157.85 -324.44) rotate(32.71)"/><rect x="640.83" y="102.25" width="5.87" height="39.46" transform="translate(611.18 -532.44) rotate(76.42)"/><rect x="608.01" y="94.98" width="5.82" height="11.4" rx="1.35" transform="translate(1089.46 -292.19) rotate(131.26)"/><rect x="620.25" y="117.13" width="7.24" height="16.36" rx="1.35" transform="translate(1200.74 -143.31) rotate(143.67)"/><rect x="590.1" y="119.01" width="6.53" height="12.48" rx="1.35" transform="translate(762.29 -457.18) rotate(94.25)"/><path class="cls-1" d="M611.05,101.59c-12,4.13-19.34,14.65-16.3,23.53"/><path class="cls-1" d="M574.13,131.46c11.32,12.37,34.88,9.19,52.69-7.1"/><path class="cls-2" d="M583,51c.48.52,2.2,4.28,3,5a37.39,37.39,0,0,0,4,3c3.46,2.22,7,4.66,8,5,5.81,1.9,6.13,2.33,13,6a61.83,61.83,0,0,0,18,6c4,.54,9,12,10,22"/><path class="cls-2" d="M638,93c1,7,6,13,11,14s4,8,8,11c4.86,3.65,7.39,2.93,10,3"/><path class="cls-20" d="M676.68,41c0,15.38-21.07,29.62-38.81,32.75-15.55,2.74-26-5.45-32.75-8.49-10-4.49-22.12-6.41-24.26-14.56-3.73-14.18,16.11-40,38.81-40C635.41,10.64,676.68,25.22,676.68,41Z"/><path class="cls-20" d="M693.66,72.51c0,25.12-11.8,49.73-24.86,49.73s-23.66-20.37-23.66-45.49-.93-51.55,12.13-51.55S693.66,47.38,693.66,72.51Z"/><path class="cls-20" d="M655.9,83.67c2.48,12.14,1,22.69-3.24,23.56s-11.1-2-13.58-14.1c-1.47-7.21,0-8.49-7.28-15.77-4.29-4.29-13.79-4.72-12.13-6.07.24-.19,12-6,12.13-6.06C636.07,64.36,653.43,71.52,655.9,83.67Z"/><rect class="cls-9" x="613.5" y="18.5" width="12.5" height="7" rx="3.5"/><rect class="cls-9" x="642.5" y="23.5" width="12.5" height="7" rx="3.5" transform="translate(54.24 -234.09) rotate(21.33)"/><rect class="cls-9" x="667.5" y="41.5" width="12.5" height="7" rx="3.5" transform="translate(270.67 -496.75) rotate(49.53)"/><polygon class="cls-11" points="607.95 36.89 604.16 35.11 600.73 37.52 601.03 33.03 597.83 30.15 601.81 29.15 603.26 24.96 605.42 28.83 609.52 29.12 606.87 32.52 607.95 36.89"/><polygon class="cls-6" points="679.47 108.92 668.23 104.22 657.99 110.81 658.99 98.67 649.55 90.97 661.41 88.17 665.82 76.81 672.14 87.22 684.3 87.91 676.36 97.14 679.47 108.92"/><polygon class="cls-7" points="648.24 51.21 643.6 49.13 639.39 51.99 639.78 46.69 635.87 43.3 640.75 42.1 642.54 37.15 645.17 41.71 650.19 42.04 646.93 46.06 648.24 51.21"/><polygon class="cls-12" points="672.41 67.51 666.04 64.63 660.27 68.58 660.79 61.23 655.42 56.53 662.12 54.87 664.58 48.01 668.19 54.34 675.08 54.8 670.62 60.37 672.41 67.51"/><circle class="cls-13" cx="615.5" cy="57.5" r="5.5"/><rect x="569.42" y="124.95" width="6.53" height="11.53" rx="1.35" transform="translate(964.46 568.38) rotate(-144.69)"/><rect x="569.15" y="126.3" width="4.85" height="2.43" rx="1" transform="translate(159.57 -288.67) rotate(32.71)"/></svg>